# xmcd
#
# Track frame offsets:
#	150
#	16168
#	35440
#	45979
#	60548
#	80194
#	98892
#	118417
#	135037
#	148553
#	164269
#	181675
#	196194
#	212396
#	229914
#	247625
#
# Disc length: 3492 seconds
#
# Revision: 1
# Processed by: cddbd v1.5.2PL0 Copyright (c) Steve Scherf et al.
# Submitted via: EZCDAudioConverter 2.4.0.1
#
DISCID=c40da210
DTITLE=Daniel - Meu Reino Encantado I
DYEAR=1900
DGENRE=
TTITLE0=Daniel Feat. José Camilo - Meu Reino Encantado
TTITLE1=Daniel Feat. Rick and Renner - Avenida Boiadeira
TTITLE2=Daniel Feat. Cézar and Paulinho - Falou E Disse
TTITLE3=João Paulo and Daniel - Poeira Da Estrada
TTITLE4=Daniel Feat. Milionário and José Rico - Quando Bate A Paixão
TTITLE5=Daniel Feat. Chitãozinho and Xororó - Terra Tombada
TTITLE6=Daniel Feat. Francisco dos Reis - Quando A Saudade Doi
TTITLE7=Daniel Feat Irmãs Galvã - Cheiro De Relva
TTITLE8=Daniel Feat. Tinoco - Moreninha Linda
TTITLE9=Daniel Feat. Teodoro Sampaio - Prato Do Dia
TTITLE10=Daniel Feat. Pardinho - Uma Coisa Puxa Outra
TTITLE11=Daniel Feat. Pena Branca - Cuitelinho
TTITLE12=Daniel Feat. Mococa and Paraíso - Porta Do Mundo
TTITLE13=Daniel Feat. Almir Sater - Tocando Em Frente
TTITLE14=Daniel Feat. Pedro Bento and Zé da Estrada - Magoa De Boiadeiro
TTITLE15=Daniel Feat. Dino Franco e Mourai - Minha Mensagem
EXTD=
EXTT0=
EXTT1=
EXTT2=
EXTT3=
EXTT4=
EXTT5=
EXTT6=
EXTT7=
EXTT8=
EXTT9=
EXTT10=
EXTT11=
EXTT12=
EXTT13=
EXTT14=
EXTT15=
PLAYORDER=
